<svg xmlns="http://www.w3.org/2000/svg" xmlns:xlink="http://www.w3.org/1999/xlink" width="500" zoomAndPan="magnify" viewBox="0 0 375 374.999991" height="500" preserveAspectRatio="xMidYMid meet" version="1.0"><defs><g/></defs><g fill="#ff914d" fill-opacity="1"><g transform="translate(76.191364, 200.896436)"><g><path d="M 12.40625 0 C 10.4375 0 8.648438 -0.457031 7.046875 -1.375 C 5.453125 -2.289062 4.175781 -3.523438 3.21875 -5.078125 C 2.269531 -6.628906 1.796875 -8.382812 1.796875 -10.34375 C 1.796875 -11.8125 2.117188 -13.1875 2.765625 -14.46875 C 3.421875 -15.757812 4.300781 -16.867188 5.40625 -17.796875 C 4.332031 -18.703125 3.488281 -19.769531 2.875 -21 C 2.257812 -22.226562 1.953125 -23.53125 1.953125 -24.90625 C 1.953125 -26.832031 2.414062 -28.550781 3.34375 -30.0625 C 4.28125 -31.582031 5.53125 -32.785156 7.09375 -33.671875 C 8.664062 -34.554688 10.398438 -35 12.296875 -35 L 27.046875 -35 L 27.046875 -28 L 13.59375 -28 C 12.96875 -28 12.382812 -27.847656 11.84375 -27.546875 C 11.3125 -27.242188 10.882812 -26.84375 10.5625 -26.34375 C 10.25 -25.84375 10.09375 -25.257812 10.09375 -24.59375 C 10.09375 -23.96875 10.25 -23.394531 10.5625 -22.875 C 10.882812 -22.351562 11.3125 -21.953125 11.84375 -21.671875 C 12.382812 -21.390625 12.96875 -21.25 13.59375 -21.25 L 25.34375 -21.25 L 25.34375 -14.25 L 13.84375 -14.25 C 13.144531 -14.25 12.507812 -14.082031 11.9375 -13.75 C 11.375 -13.414062 10.925781 -12.984375 10.59375 -12.453125 C 10.257812 -11.921875 10.09375 -11.300781 10.09375 -10.59375 C 10.09375 -9.925781 10.257812 -9.316406 10.59375 -8.765625 C 10.925781 -8.222656 11.375 -7.800781 11.9375 -7.5 C 12.507812 -7.195312 13.144531 -7.046875 13.84375 -7.046875 L 27.046875 -7.046875 L 27.046875 0 Z M 12.40625 0 "/></g></g></g><g fill="#ff914d" fill-opacity="1"><g transform="translate(101.086877, 200.896436)"><g><path d="M 3.046875 0 L 3.046875 -35 L 19.046875 -35 C 21.410156 -35 23.566406 -34.484375 25.515625 -33.453125 C 27.472656 -32.421875 29.023438 -30.988281 30.171875 -29.15625 C 31.328125 -27.320312 31.90625 -25.203125 31.90625 -22.796875 C 31.90625 -20.566406 31.367188 -18.554688 30.296875 -16.765625 C 29.234375 -14.984375 27.832031 -13.546875 26.09375 -12.453125 L 28.90625 -7.703125 C 29.070312 -7.460938 29.257812 -7.273438 29.46875 -7.140625 C 29.6875 -7.015625 29.976562 -6.953125 30.34375 -6.953125 L 33.453125 -6.953125 L 33.453125 0 L 28.546875 0 C 27.046875 0 25.675781 -0.359375 24.4375 -1.078125 C 23.207031 -1.796875 22.242188 -2.738281 21.546875 -3.90625 L 17.796875 -10.546875 C 17.566406 -10.546875 17.328125 -10.546875 17.078125 -10.546875 C 16.828125 -10.546875 16.566406 -10.546875 16.296875 -10.546875 L 11.453125 -10.546875 L 11.453125 0 Z M 11.453125 -17.5 L 18.09375 -17.5 C 19.0625 -17.5 19.960938 -17.707031 20.796875 -18.125 C 21.628906 -18.539062 22.285156 -19.140625 22.765625 -19.921875 C 23.253906 -20.703125 23.5 -21.644531 23.5 -22.75 C 23.5 -23.851562 23.25 -24.796875 22.75 -25.578125 C 22.25 -26.359375 21.585938 -26.957031 20.765625 -27.375 C 19.953125 -27.789062 19.0625 -28 18.09375 -28 L 11.453125 -28 Z M 11.453125 -17.5 "/></g></g></g><g fill="#ff914d" fill-opacity="1"><g transform="translate(131.181577, 200.896436)"><g><path d="M 2.59375 0 L 2.59375 -24.65625 C 2.59375 -26.582031 3.066406 -28.328125 4.015625 -29.890625 C 4.972656 -31.460938 6.257812 -32.707031 7.875 -33.625 C 9.488281 -34.539062 11.296875 -35 13.296875 -35 L 26.34375 -35 L 26.34375 -28 L 14.34375 -28 C 13.414062 -28 12.625 -27.664062 11.96875 -27 C 11.320312 -26.332031 11 -25.515625 11 -24.546875 L 11 -19.5 L 24.65625 -19.5 L 24.65625 -12.546875 L 11 -12.546875 L 11 0 Z M 2.59375 0 "/></g></g></g><g fill="#ff914d" fill-opacity="1"><g transform="translate(154.927271, 200.896436)"><g><path d="M 12.40625 0 C 10.4375 0 8.648438 -0.457031 7.046875 -1.375 C 5.453125 -2.289062 4.175781 -3.523438 3.21875 -5.078125 C 2.269531 -6.628906 1.796875 -8.382812 1.796875 -10.34375 C 1.796875 -11.8125 2.117188 -13.1875 2.765625 -14.46875 C 3.421875 -15.757812 4.300781 -16.867188 5.40625 -17.796875 C 4.332031 -18.703125 3.488281 -19.769531 2.875 -21 C 2.257812 -22.226562 1.953125 -23.53125 1.953125 -24.90625 C 1.953125 -26.832031 2.414062 -28.550781 3.34375 -30.0625 C 4.28125 -31.582031 5.53125 -32.785156 7.09375 -33.671875 C 8.664062 -34.554688 10.398438 -35 12.296875 -35 L 27.046875 -35 L 27.046875 -28 L 13.59375 -28 C 12.96875 -28 12.382812 -27.847656 11.84375 -27.546875 C 11.3125 -27.242188 10.882812 -26.84375 10.5625 -26.34375 C 10.25 -25.84375 10.09375 -25.257812 10.09375 -24.59375 C 10.09375 -23.96875 10.25 -23.394531 10.5625 -22.875 C 10.882812 -22.351562 11.3125 -21.953125 11.84375 -21.671875 C 12.382812 -21.390625 12.96875 -21.25 13.59375 -21.25 L 25.34375 -21.25 L 25.34375 -14.25 L 13.84375 -14.25 C 13.144531 -14.25 12.507812 -14.082031 11.9375 -13.75 C 11.375 -13.414062 10.925781 -12.984375 10.59375 -12.453125 C 10.257812 -11.921875 10.09375 -11.300781 10.09375 -10.59375 C 10.09375 -9.925781 10.257812 -9.316406 10.59375 -8.765625 C 10.925781 -8.222656 11.375 -7.800781 11.9375 -7.5 C 12.507812 -7.195312 13.144531 -7.046875 13.84375 -7.046875 L 27.046875 -7.046875 L 27.046875 0 Z M 12.40625 0 "/></g></g></g><g fill="#ff914d" fill-opacity="1"><g transform="translate(179.822781, 200.896436)"><g><path d="M 20.046875 0 C 17.179688 0 14.597656 -0.441406 12.296875 -1.328125 C 9.992188 -2.210938 8.039062 -3.453125 6.4375 -5.046875 C 4.84375 -6.648438 3.613281 -8.507812 2.75 -10.625 C 1.882812 -12.738281 1.453125 -15.03125 1.453125 -17.5 C 1.453125 -19.96875 1.882812 -22.257812 2.75 -24.375 C 3.613281 -26.488281 4.851562 -28.34375 6.46875 -29.9375 C 8.09375 -31.539062 10.046875 -32.785156 12.328125 -33.671875 C 14.609375 -34.554688 17.179688 -35 20.046875 -35 L 25.453125 -35 L 25.453125 -28 L 20.25 -28 C 18.6875 -28 17.257812 -27.734375 15.96875 -27.203125 C 14.6875 -26.671875 13.585938 -25.925781 12.671875 -24.96875 C 11.753906 -24.019531 11.050781 -22.910156 10.5625 -21.640625 C 10.082031 -20.378906 9.84375 -19 9.84375 -17.5 C 9.84375 -16 10.082031 -14.613281 10.5625 -13.34375 C 11.050781 -12.082031 11.753906 -10.972656 12.671875 -10.015625 C 13.585938 -9.066406 14.6875 -8.328125 15.96875 -7.796875 C 17.257812 -7.265625 18.6875 -7 20.25 -7 L 25.453125 -7 L 25.453125 0 Z M 20.046875 0 "/></g></g></g><g fill="#ff914d" fill-opacity="1"><g transform="translate(202.868571, 200.896436)"><g><path d="M 21.046875 0 C 18.910156 0 17.035156 -0.472656 15.421875 -1.421875 C 13.804688 -2.367188 12.539062 -3.644531 11.625 -5.25 C 10.707031 -6.851562 10.25 -8.632812 10.25 -10.59375 L 10.25 -28 L 0.75 -28 L 0.75 -35 L 28.09375 -35 L 28.09375 -28 L 18.65625 -28 L 18.65625 -9.84375 C 18.65625 -9.082031 18.921875 -8.414062 19.453125 -7.84375 C 19.984375 -7.28125 20.648438 -7 21.453125 -7 L 24.203125 -7 L 24.203125 0 Z M 21.046875 0 "/></g></g></g><g fill="#ff914d" fill-opacity="1"><g transform="translate(31.260299, 199.499987)"><g><path d="M 27.296875 -35 C 28.765625 -35 30.460938 -34.960938 32.390625 -34.890625 C 34.328125 -34.828125 36.296875 -34.628906 38.296875 -34.296875 C 40.296875 -33.960938 42.144531 -33.410156 43.84375 -32.640625 C 45.550781 -31.878906 46.921875 -30.804688 47.953125 -29.421875 C 48.984375 -28.035156 49.5 -26.242188 49.5 -24.046875 C 49.5 -21.453125 48.929688 -19.363281 47.796875 -17.78125 C 46.660156 -16.195312 45.082031 -14.992188 43.0625 -14.171875 C 41.050781 -13.359375 38.726562 -12.804688 36.09375 -12.515625 C 33.46875 -12.234375 30.671875 -12.078125 27.703125 -12.046875 L 9.453125 -12.046875 L 9.453125 0 L 3 0 L 3 -35 Z M 25.703125 -18.5 C 29.265625 -18.5 32.15625 -18.609375 34.375 -18.828125 C 36.59375 -19.046875 38.304688 -19.335938 39.515625 -19.703125 C 40.734375 -20.066406 41.582031 -20.488281 42.0625 -20.96875 C 42.550781 -21.457031 42.835938 -21.96875 42.921875 -22.5 C 43.003906 -23.03125 43.046875 -23.546875 43.046875 -24.046875 C 43.046875 -24.953125 42.65625 -25.6875 41.875 -26.25 C 41.09375 -26.8125 40.066406 -27.25 38.796875 -27.5625 C 37.535156 -27.882812 36.1875 -28.113281 34.75 -28.25 C 33.3125 -28.382812 31.9375 -28.46875 30.625 -28.5 C 29.3125 -28.53125 28.203125 -28.546875 27.296875 -28.546875 L 9.453125 -28.546875 L 9.453125 -18.5 Z M 25.703125 -18.5 "/></g></g></g><g fill="#1f1f1f" fill-opacity="1"><g transform="translate(282.832136, 200.896436)"><g><path d="M 2.25 0 L 2.25 -7 L 8.296875 -7 L 8.296875 -28 L 2.25 -28 L 2.25 -35 L 22.703125 -35 L 22.703125 -28 L 16.65625 -28 L 16.65625 -7 L 22.703125 -7 L 22.703125 0 Z M 2.25 0 "/></g></g></g><g fill="#1f1f1f" fill-opacity="1"><g transform="translate(299.72827, 200.896436)"><g><path d="M 20 0.65625 C 17.195312 0.65625 14.660156 0.1875 12.390625 -0.75 C 10.128906 -1.6875 8.179688 -2.988281 6.546875 -4.65625 C 4.910156 -6.320312 3.648438 -8.253906 2.765625 -10.453125 C 1.890625 -12.648438 1.453125 -15.015625 1.453125 -17.546875 C 1.453125 -20.078125 1.890625 -22.441406 2.765625 -24.640625 C 3.648438 -26.847656 4.898438 -28.773438 6.515625 -30.421875 C 8.140625 -32.078125 10.09375 -33.363281 12.375 -34.28125 C 14.65625 -35.195312 17.195312 -35.65625 20 -35.65625 C 22.769531 -35.65625 25.296875 -35.195312 27.578125 -34.28125 C 29.859375 -33.363281 31.804688 -32.078125 33.421875 -30.421875 C 35.035156 -28.773438 36.289062 -26.84375 37.1875 -24.625 C 38.09375 -22.40625 38.546875 -20.046875 38.546875 -17.546875 C 38.546875 -15.015625 38.09375 -12.648438 37.1875 -10.453125 C 36.289062 -8.253906 35.035156 -6.320312 33.421875 -4.65625 C 31.804688 -2.988281 29.859375 -1.6875 27.578125 -0.75 C 25.296875 0.1875 22.769531 0.65625 20 0.65625 Z M 20 -6.5 C 21.46875 -6.5 22.828125 -6.773438 24.078125 -7.328125 C 25.328125 -7.878906 26.398438 -8.65625 27.296875 -9.65625 C 28.203125 -10.65625 28.90625 -11.828125 29.40625 -13.171875 C 29.90625 -14.523438 30.15625 -15.984375 30.15625 -17.546875 C 30.15625 -19.117188 29.90625 -20.570312 29.40625 -21.90625 C 28.90625 -23.238281 28.203125 -24.40625 27.296875 -25.40625 C 26.398438 -26.40625 25.328125 -27.175781 24.078125 -27.71875 C 22.828125 -28.269531 21.46875 -28.546875 20 -28.546875 C 18.5 -28.546875 17.128906 -28.269531 15.890625 -27.71875 C 14.660156 -27.175781 13.585938 -26.40625 12.671875 -25.40625 C 11.753906 -24.40625 11.050781 -23.226562 10.5625 -21.875 C 10.082031 -20.519531 9.84375 -19.078125 9.84375 -17.546875 C 9.84375 -15.984375 10.082031 -14.523438 10.5625 -13.171875 C 11.050781 -11.828125 11.753906 -10.65625 12.671875 -9.65625 C 13.585938 -8.65625 14.660156 -7.878906 15.890625 -7.328125 C 17.128906 -6.773438 18.5 -6.5 20 -6.5 Z M 20 -6.5 "/></g></g></g><g fill="#1f1f1f" fill-opacity="1"><g transform="translate(236.153484, 203.353537)"><g><path d="M 36.796875 -22.09375 C 39.628906 -21.726562 41.90625 -21.132812 43.625 -20.3125 C 45.34375 -19.5 46.648438 -18.578125 47.546875 -17.546875 C 48.453125 -16.515625 49.070312 -15.460938 49.40625 -14.390625 C 49.738281 -13.328125 49.90625 -12.347656 49.90625 -11.453125 C 49.90625 -9.046875 49.003906 -6.960938 47.203125 -5.203125 C 46.203125 -4.234375 45.007812 -3.429688 43.625 -2.796875 C 42.238281 -2.160156 40.785156 -1.648438 39.265625 -1.265625 C 37.753906 -0.890625 36.273438 -0.609375 34.828125 -0.421875 C 33.378906 -0.242188 32.078125 -0.128906 30.921875 -0.078125 C 29.773438 -0.0234375 28.898438 0 28.296875 0 C 28.160156 0 28.035156 0 27.921875 0 C 27.804688 0 27.71875 0 27.65625 0 L 3 0 L 3 -34.953125 L 18.546875 -34.953125 C 19.785156 -34.953125 21.21875 -34.914062 22.84375 -34.84375 C 24.476562 -34.78125 26.144531 -34.613281 27.84375 -34.34375 C 29.550781 -34.082031 31.128906 -33.625 32.578125 -32.96875 C 34.023438 -32.320312 35.195312 -31.40625 36.09375 -30.21875 C 37 -29.039062 37.453125 -27.535156 37.453125 -25.703125 C 37.453125 -24.335938 37.234375 -23.132812 36.796875 -22.09375 Z M 9.453125 -28.5 L 9.453125 -22.453125 L 17.25 -22.453125 C 20.019531 -22.453125 22.269531 -22.507812 24 -22.625 C 25.726562 -22.738281 27.078125 -22.90625 28.046875 -23.125 C 29.015625 -23.34375 29.707031 -23.582031 30.125 -23.84375 C 30.539062 -24.113281 30.789062 -24.40625 30.875 -24.71875 C 30.957031 -25.039062 31 -25.367188 31 -25.703125 C 31 -26.128906 30.671875 -26.5625 30.015625 -27 C 29.367188 -27.4375 28.15625 -27.796875 26.375 -28.078125 C 24.59375 -28.359375 21.984375 -28.5 18.546875 -28.5 Z M 42.203125 -9.796875 C 42.535156 -10.128906 42.742188 -10.425781 42.828125 -10.6875 C 42.910156 -10.957031 42.953125 -11.210938 42.953125 -11.453125 C 42.953125 -12.546875 42.375 -13.425781 41.21875 -14.09375 C 40.070312 -14.757812 38.582031 -15.242188 36.75 -15.546875 C 34.914062 -15.847656 33 -16 31 -16 L 9.453125 -16 L 9.453125 -6.453125 L 27.703125 -6.453125 C 28.796875 -6.421875 30.039062 -6.453125 31.4375 -6.546875 C 32.84375 -6.648438 34.238281 -6.832031 35.625 -7.09375 C 37.007812 -7.363281 38.285156 -7.722656 39.453125 -8.171875 C 40.617188 -8.617188 41.535156 -9.160156 42.203125 -9.796875 Z M 42.203125 -9.796875 "/></g></g></g></svg>