<svg xmlns="http://www.w3.org/2000/svg" xmlns:xlink="http://www.w3.org/1999/xlink" width="500" zoomAndPan="magnify" viewBox="0 0 375 374.999991" height="500" preserveAspectRatio="xMidYMid meet" version="1.0"><defs><g/></defs><g fill="#e87731" fill-opacity="1"><g transform="translate(53.920837, 203.576784)"><g><path d="M 14.875 0 C 12.519531 0 10.378906 -0.546875 8.453125 -1.640625 C 6.535156 -2.742188 5.003906 -4.222656 3.859375 -6.078125 C 2.722656 -7.941406 2.15625 -10.054688 2.15625 -12.421875 C 2.15625 -14.179688 2.546875 -15.832031 3.328125 -17.375 C 4.109375 -18.914062 5.160156 -20.242188 6.484375 -21.359375 C 5.203125 -22.441406 4.191406 -23.722656 3.453125 -25.203125 C 2.710938 -26.679688 2.34375 -28.238281 2.34375 -29.875 C 2.34375 -32.195312 2.898438 -34.265625 4.015625 -36.078125 C 5.140625 -37.898438 6.640625 -39.34375 8.515625 -40.40625 C 10.398438 -41.46875 12.484375 -42 14.765625 -42 L 32.453125 -42 L 32.453125 -33.59375 L 16.3125 -33.59375 C 15.5625 -33.59375 14.863281 -33.410156 14.21875 -33.046875 C 13.582031 -32.691406 13.070312 -32.210938 12.6875 -31.609375 C 12.3125 -31.015625 12.125 -30.316406 12.125 -29.515625 C 12.125 -28.753906 12.3125 -28.0625 12.6875 -27.4375 C 13.070312 -26.820312 13.582031 -26.34375 14.21875 -26 C 14.863281 -25.664062 15.5625 -25.5 16.3125 -25.5 L 30.421875 -25.5 L 30.421875 -17.09375 L 16.625 -17.09375 C 15.78125 -17.09375 15.015625 -16.894531 14.328125 -16.5 C 13.648438 -16.101562 13.113281 -15.582031 12.71875 -14.9375 C 12.320312 -14.300781 12.125 -13.5625 12.125 -12.71875 C 12.125 -11.914062 12.320312 -11.1875 12.71875 -10.53125 C 13.113281 -9.875 13.648438 -9.363281 14.328125 -9 C 15.015625 -8.632812 15.78125 -8.453125 16.625 -8.453125 L 32.453125 -8.453125 L 32.453125 0 Z M 14.875 0 "/></g></g></g><g fill="#e87731" fill-opacity="1"><g transform="translate(83.797421, 203.576784)"><g><path d="M 3.65625 0 L 3.65625 -42 L 22.859375 -42 C 25.703125 -42 28.289062 -41.378906 30.625 -40.140625 C 32.96875 -38.898438 34.828125 -37.179688 36.203125 -34.984375 C 37.585938 -32.785156 38.28125 -30.242188 38.28125 -27.359375 C 38.28125 -24.679688 37.640625 -22.269531 36.359375 -20.125 C 35.078125 -17.988281 33.394531 -16.257812 31.3125 -14.9375 L 34.6875 -9.234375 C 34.882812 -8.953125 35.113281 -8.734375 35.375 -8.578125 C 35.632812 -8.421875 35.984375 -8.34375 36.421875 -8.34375 L 40.140625 -8.34375 L 40.140625 0 L 34.265625 0 C 32.460938 0 30.820312 -0.425781 29.34375 -1.28125 C 27.863281 -2.144531 26.703125 -3.28125 25.859375 -4.6875 L 21.359375 -12.65625 C 21.078125 -12.65625 20.785156 -12.65625 20.484375 -12.65625 C 20.191406 -12.65625 19.882812 -12.65625 19.5625 -12.65625 L 13.734375 -12.65625 L 13.734375 0 Z M 13.734375 -21 L 21.71875 -21 C 22.875 -21 23.953125 -21.25 24.953125 -21.75 C 25.953125 -22.25 26.742188 -22.96875 27.328125 -23.90625 C 27.910156 -24.84375 28.203125 -25.972656 28.203125 -27.296875 C 28.203125 -28.617188 27.898438 -29.75 27.296875 -30.6875 C 26.703125 -31.625 25.910156 -32.34375 24.921875 -32.84375 C 23.941406 -33.34375 22.875 -33.59375 21.71875 -33.59375 L 13.734375 -33.59375 Z M 13.734375 -21 "/></g></g></g><g fill="#e87731" fill-opacity="1"><g transform="translate(119.913443, 203.576784)"><g><path d="M 3.125 0 L 3.125 -29.578125 C 3.125 -31.898438 3.691406 -34 4.828125 -35.875 C 5.972656 -37.757812 7.515625 -39.25 9.453125 -40.34375 C 11.390625 -41.445312 13.554688 -42 15.953125 -42 L 31.625 -42 L 31.625 -33.59375 L 17.21875 -33.59375 C 16.101562 -33.59375 15.15625 -33.191406 14.375 -32.390625 C 13.59375 -31.597656 13.203125 -30.617188 13.203125 -29.453125 L 13.203125 -23.40625 L 29.578125 -23.40625 L 29.578125 -15.0625 L 13.203125 -15.0625 L 13.203125 0 Z M 3.125 0 "/></g></g></g><g fill="#e87731" fill-opacity="1"><g transform="translate(148.410153, 203.576784)"><g><path d="M 14.875 0 C 12.519531 0 10.378906 -0.546875 8.453125 -1.640625 C 6.535156 -2.742188 5.003906 -4.222656 3.859375 -6.078125 C 2.722656 -7.941406 2.15625 -10.054688 2.15625 -12.421875 C 2.15625 -14.179688 2.546875 -15.832031 3.328125 -17.375 C 4.109375 -18.914062 5.160156 -20.242188 6.484375 -21.359375 C 5.203125 -22.441406 4.191406 -23.722656 3.453125 -25.203125 C 2.710938 -26.679688 2.34375 -28.238281 2.34375 -29.875 C 2.34375 -32.195312 2.898438 -34.265625 4.015625 -36.078125 C 5.140625 -37.898438 6.640625 -39.34375 8.515625 -40.40625 C 10.398438 -41.46875 12.484375 -42 14.765625 -42 L 32.453125 -42 L 32.453125 -33.59375 L 16.3125 -33.59375 C 15.5625 -33.59375 14.863281 -33.410156 14.21875 -33.046875 C 13.582031 -32.691406 13.070312 -32.210938 12.6875 -31.609375 C 12.3125 -31.015625 12.125 -30.316406 12.125 -29.515625 C 12.125 -28.753906 12.3125 -28.0625 12.6875 -27.4375 C 13.070312 -26.820312 13.582031 -26.34375 14.21875 -26 C 14.863281 -25.664062 15.5625 -25.5 16.3125 -25.5 L 30.421875 -25.5 L 30.421875 -17.09375 L 16.625 -17.09375 C 15.78125 -17.09375 15.015625 -16.894531 14.328125 -16.5 C 13.648438 -16.101562 13.113281 -15.582031 12.71875 -14.9375 C 12.320312 -14.300781 12.125 -13.5625 12.125 -12.71875 C 12.125 -11.914062 12.320312 -11.1875 12.71875 -10.53125 C 13.113281 -9.875 13.648438 -9.363281 14.328125 -9 C 15.015625 -8.632812 15.78125 -8.453125 16.625 -8.453125 L 32.453125 -8.453125 L 32.453125 0 Z M 14.875 0 "/></g></g></g><g fill="#e87731" fill-opacity="1"><g transform="translate(178.286735, 203.576784)"><g><path d="M 24.0625 0 C 20.625 0 17.523438 -0.53125 14.765625 -1.59375 C 12.003906 -2.65625 9.660156 -4.144531 7.734375 -6.0625 C 5.816406 -7.976562 4.335938 -10.207031 3.296875 -12.75 C 2.253906 -15.289062 1.734375 -18.039062 1.734375 -21 C 1.734375 -23.957031 2.253906 -26.707031 3.296875 -29.25 C 4.335938 -31.789062 5.828125 -34.019531 7.765625 -35.9375 C 9.710938 -37.851562 12.054688 -39.34375 14.796875 -40.40625 C 17.535156 -41.46875 20.625 -42 24.0625 -42 L 30.546875 -42 L 30.546875 -33.59375 L 24.296875 -33.59375 C 22.421875 -33.59375 20.710938 -33.273438 19.171875 -32.640625 C 17.628906 -32.003906 16.304688 -31.113281 15.203125 -29.96875 C 14.109375 -28.832031 13.269531 -27.503906 12.6875 -25.984375 C 12.101562 -24.460938 11.8125 -22.800781 11.8125 -21 C 11.8125 -19.195312 12.101562 -17.535156 12.6875 -16.015625 C 13.269531 -14.492188 14.109375 -13.160156 15.203125 -12.015625 C 16.304688 -10.878906 17.628906 -9.992188 19.171875 -9.359375 C 20.710938 -8.722656 22.421875 -8.40625 24.296875 -8.40625 L 30.546875 -8.40625 L 30.546875 0 Z M 24.0625 0 "/></g></g></g><g fill="#e87731" fill-opacity="1"><g transform="translate(205.943506, 203.576784)"><g><path d="M 25.265625 0 C 22.703125 0 20.445312 -0.566406 18.5 -1.703125 C 16.5625 -2.847656 15.039062 -4.378906 13.9375 -6.296875 C 12.84375 -8.222656 12.296875 -10.363281 12.296875 -12.71875 L 12.296875 -33.59375 L 0.90625 -33.59375 L 0.90625 -42 L 33.71875 -42 L 33.71875 -33.59375 L 22.375 -33.59375 L 22.375 -11.8125 C 22.375 -10.894531 22.691406 -10.097656 23.328125 -9.421875 C 23.972656 -8.742188 24.773438 -8.40625 25.734375 -8.40625 L 29.046875 -8.40625 L 29.046875 0 Z M 25.265625 0 "/></g></g></g><g fill="#e87731" fill-opacity="1"><g transform="translate(0.0000045, 201.900924)"><g><path d="M 32.765625 -42 C 34.523438 -42 36.5625 -41.957031 38.875 -41.875 C 41.195312 -41.800781 43.554688 -41.5625 45.953125 -41.15625 C 48.359375 -40.757812 50.582031 -40.097656 52.625 -39.171875 C 54.664062 -38.253906 56.304688 -36.960938 57.546875 -35.296875 C 58.785156 -33.640625 59.40625 -31.492188 59.40625 -28.859375 C 59.40625 -25.742188 58.722656 -23.234375 57.359375 -21.328125 C 55.992188 -19.429688 54.101562 -17.992188 51.6875 -17.015625 C 49.269531 -16.035156 46.476562 -15.375 43.3125 -15.03125 C 40.15625 -14.6875 36.796875 -14.492188 33.234375 -14.453125 L 11.34375 -14.453125 L 11.34375 0 L 3.59375 0 L 3.59375 -42 Z M 30.84375 -22.203125 C 35.125 -22.203125 38.59375 -22.332031 41.25 -22.59375 C 43.90625 -22.851562 45.960938 -23.203125 47.421875 -23.640625 C 48.890625 -24.078125 49.910156 -24.585938 50.484375 -25.171875 C 51.066406 -25.753906 51.40625 -26.363281 51.5 -27 C 51.601562 -27.632812 51.65625 -28.253906 51.65625 -28.859375 C 51.65625 -29.941406 51.1875 -30.820312 50.25 -31.5 C 49.3125 -32.175781 48.082031 -32.703125 46.5625 -33.078125 C 45.039062 -33.460938 43.421875 -33.734375 41.703125 -33.890625 C 39.984375 -34.054688 38.332031 -34.160156 36.75 -34.203125 C 35.164062 -34.242188 33.835938 -34.265625 32.765625 -34.265625 L 11.34375 -34.265625 L 11.34375 -22.203125 Z M 30.84375 -22.203125 "/></g></g></g><g fill="#1f1f1f" fill-opacity="1"><g transform="translate(301.90609, 203.576784)"><g><path d="M 2.703125 0 L 2.703125 -8.40625 L 9.953125 -8.40625 L 9.953125 -33.59375 L 2.703125 -33.59375 L 2.703125 -42 L 27.234375 -42 L 27.234375 -33.59375 L 19.984375 -33.59375 L 19.984375 -8.40625 L 27.234375 -8.40625 L 27.234375 0 Z M 2.703125 0 "/></g></g></g><g fill="#1f1f1f" fill-opacity="1"><g transform="translate(322.182789, 203.576784)"><g><path d="M 24 0.78125 C 20.632812 0.78125 17.59375 0.222656 14.875 -0.890625 C 12.15625 -2.015625 9.816406 -3.578125 7.859375 -5.578125 C 5.898438 -7.578125 4.390625 -9.894531 3.328125 -12.53125 C 2.265625 -15.175781 1.734375 -18.019531 1.734375 -21.0625 C 1.734375 -24.101562 2.265625 -26.941406 3.328125 -29.578125 C 4.390625 -32.222656 5.890625 -34.535156 7.828125 -36.515625 C 9.765625 -38.492188 12.101562 -40.03125 14.84375 -41.125 C 17.582031 -42.226562 20.632812 -42.78125 24 -42.78125 C 27.320312 -42.78125 30.351562 -42.226562 33.09375 -41.125 C 35.832031 -40.03125 38.171875 -38.492188 40.109375 -36.515625 C 42.046875 -34.535156 43.554688 -32.210938 44.640625 -29.546875 C 45.722656 -26.890625 46.265625 -24.0625 46.265625 -21.0625 C 46.265625 -18.019531 45.722656 -15.175781 44.640625 -12.53125 C 43.554688 -9.894531 42.046875 -7.578125 40.109375 -5.578125 C 38.171875 -3.578125 35.832031 -2.015625 33.09375 -0.890625 C 30.351562 0.222656 27.320312 0.78125 24 0.78125 Z M 24 -7.796875 C 25.757812 -7.796875 27.390625 -8.125 28.890625 -8.78125 C 30.390625 -9.445312 31.675781 -10.378906 32.75 -11.578125 C 33.832031 -12.773438 34.675781 -14.179688 35.28125 -15.796875 C 35.882812 -17.421875 36.1875 -19.175781 36.1875 -21.0625 C 36.1875 -22.9375 35.882812 -24.675781 35.28125 -26.28125 C 34.675781 -27.882812 33.832031 -29.285156 32.75 -30.484375 C 31.675781 -31.679688 30.390625 -32.609375 28.890625 -33.265625 C 27.390625 -33.929688 25.757812 -34.265625 24 -34.265625 C 22.195312 -34.265625 20.554688 -33.929688 19.078125 -33.265625 C 17.597656 -32.609375 16.304688 -31.679688 15.203125 -30.484375 C 14.109375 -29.285156 13.269531 -27.875 12.6875 -26.25 C 12.101562 -24.625 11.8125 -22.894531 11.8125 -21.0625 C 11.8125 -19.175781 12.101562 -17.421875 12.6875 -15.796875 C 13.269531 -14.179688 14.109375 -12.773438 15.203125 -11.578125 C 16.304688 -10.378906 17.597656 -9.445312 19.078125 -8.78125 C 20.554688 -8.125 22.195312 -7.796875 24 -7.796875 Z M 24 -7.796875 "/></g></g></g><g fill="#1f1f1f" fill-opacity="1"><g transform="translate(245.888043, 206.525496)"><g><path d="M 44.15625 -26.515625 C 47.5625 -26.078125 50.289062 -25.367188 52.34375 -24.390625 C 54.40625 -23.410156 55.976562 -22.300781 57.0625 -21.0625 C 58.144531 -19.820312 58.882812 -18.5625 59.28125 -17.28125 C 59.675781 -16 59.875 -14.816406 59.875 -13.734375 C 59.875 -10.859375 58.796875 -8.359375 56.640625 -6.234375 C 55.441406 -5.078125 54.007812 -4.117188 52.34375 -3.359375 C 50.6875 -2.597656 48.945312 -1.988281 47.125 -1.53125 C 45.3125 -1.070312 43.535156 -0.734375 41.796875 -0.515625 C 40.054688 -0.296875 38.492188 -0.15625 37.109375 -0.09375 C 35.734375 -0.03125 34.679688 0 33.953125 0 C 33.796875 0 33.644531 0 33.5 0 C 33.363281 0 33.257812 0 33.1875 0 L 3.59375 0 L 3.59375 -41.9375 L 22.265625 -41.9375 C 23.742188 -41.9375 25.460938 -41.894531 27.421875 -41.8125 C 29.378906 -41.738281 31.378906 -41.539062 33.421875 -41.21875 C 35.460938 -40.894531 37.351562 -40.34375 39.09375 -39.5625 C 40.832031 -38.789062 42.238281 -37.691406 43.3125 -36.265625 C 44.394531 -34.847656 44.9375 -33.039062 44.9375 -30.84375 C 44.9375 -29.195312 44.675781 -27.753906 44.15625 -26.515625 Z M 11.34375 -34.203125 L 11.34375 -26.9375 L 20.703125 -26.9375 C 24.023438 -26.9375 26.722656 -27.003906 28.796875 -27.140625 C 30.878906 -27.285156 32.5 -27.488281 33.65625 -27.75 C 34.820312 -28.007812 35.65625 -28.296875 36.15625 -28.609375 C 36.65625 -28.929688 36.953125 -29.28125 37.046875 -29.65625 C 37.148438 -30.039062 37.203125 -30.4375 37.203125 -30.84375 C 37.203125 -31.363281 36.8125 -31.882812 36.03125 -32.40625 C 35.25 -32.925781 33.785156 -33.351562 31.640625 -33.6875 C 29.503906 -34.03125 26.378906 -34.203125 22.265625 -34.203125 Z M 50.640625 -11.765625 C 51.035156 -12.160156 51.285156 -12.515625 51.390625 -12.828125 C 51.492188 -13.148438 51.546875 -13.453125 51.546875 -13.734375 C 51.546875 -15.054688 50.851562 -16.117188 49.46875 -16.921875 C 48.09375 -17.722656 46.300781 -18.300781 44.09375 -18.65625 C 41.894531 -19.019531 39.597656 -19.203125 37.203125 -19.203125 L 11.34375 -19.203125 L 11.34375 -7.734375 L 33.234375 -7.734375 C 34.554688 -7.703125 36.054688 -7.742188 37.734375 -7.859375 C 39.421875 -7.984375 41.09375 -8.203125 42.75 -8.515625 C 44.40625 -8.835938 45.929688 -9.269531 47.328125 -9.8125 C 48.734375 -10.351562 49.835938 -11.003906 50.640625 -11.765625 Z M 50.640625 -11.765625 "/></g></g></g></svg>