<svg xmlns="http://www.w3.org/2000/svg" xmlns:xlink="http://www.w3.org/1999/xlink" width="500" zoomAndPan="magnify" viewBox="0 0 375 374.999991" height="500" preserveAspectRatio="xMidYMid meet" version="1.0"><defs><g/></defs><g fill="#ff914d" fill-opacity="1"><g transform="translate(111.320841, 204.638196)"><g><path d="M 38.984375 -49.984375 C 41.078125 -49.984375 43.503906 -49.9375 46.265625 -49.84375 C 49.023438 -49.75 51.832031 -49.460938 54.6875 -48.984375 C 57.550781 -48.503906 60.195312 -47.71875 62.625 -46.625 C 65.050781 -45.53125 67 -43.992188 68.46875 -42.015625 C 69.945312 -40.046875 70.6875 -37.488281 70.6875 -34.34375 C 70.6875 -30.632812 69.878906 -27.648438 68.265625 -25.390625 C 66.648438 -23.128906 64.398438 -21.414062 61.515625 -20.25 C 58.640625 -19.082031 55.320312 -18.296875 51.5625 -17.890625 C 47.800781 -17.484375 43.800781 -17.253906 39.5625 -17.203125 L 13.5 -17.203125 L 13.5 0 L 4.28125 0 L 4.28125 -49.984375 Z M 36.703125 -26.421875 C 41.796875 -26.421875 45.925781 -26.570312 49.09375 -26.875 C 52.257812 -27.1875 54.707031 -27.601562 56.4375 -28.125 C 58.175781 -28.65625 59.390625 -29.265625 60.078125 -29.953125 C 60.773438 -30.640625 61.179688 -31.363281 61.296875 -32.125 C 61.421875 -32.894531 61.484375 -33.632812 61.484375 -34.34375 C 61.484375 -35.632812 60.921875 -36.679688 59.796875 -37.484375 C 58.679688 -38.296875 57.21875 -38.925781 55.40625 -39.375 C 53.601562 -39.832031 51.675781 -40.15625 49.625 -40.34375 C 47.582031 -40.53125 45.617188 -40.644531 43.734375 -40.6875 C 41.859375 -40.738281 40.273438 -40.765625 38.984375 -40.765625 L 13.5 -40.765625 L 13.5 -26.421875 Z M 36.703125 -26.421875 "/></g></g></g><g fill="#1f1f1f" fill-opacity="1"><g transform="translate(183.578195, 204.638196)"><g><path d="M 52.5625 -31.5625 C 56.601562 -31.039062 59.847656 -30.195312 62.296875 -29.03125 C 64.753906 -27.863281 66.625 -26.539062 67.90625 -25.0625 C 69.1875 -23.582031 70.066406 -22.082031 70.546875 -20.5625 C 71.023438 -19.039062 71.265625 -17.640625 71.265625 -16.359375 C 71.265625 -12.921875 69.976562 -9.941406 67.40625 -7.421875 C 65.976562 -6.046875 64.273438 -4.90625 62.296875 -4 C 60.328125 -3.09375 58.257812 -2.363281 56.09375 -1.8125 C 53.925781 -1.269531 51.804688 -0.867188 49.734375 -0.609375 C 47.660156 -0.347656 45.800781 -0.179688 44.15625 -0.109375 C 42.519531 -0.0351562 41.273438 0 40.421875 0 C 40.222656 0 40.039062 0 39.875 0 C 39.707031 0 39.578125 0 39.484375 0 L 4.28125 0 L 4.28125 -49.90625 L 26.484375 -49.90625 C 28.253906 -49.90625 30.300781 -49.859375 32.625 -49.765625 C 34.957031 -49.671875 37.335938 -49.429688 39.765625 -49.046875 C 42.203125 -48.671875 44.453125 -48.019531 46.515625 -47.09375 C 48.585938 -46.164062 50.265625 -44.851562 51.546875 -43.15625 C 52.835938 -41.46875 53.484375 -39.316406 53.484375 -36.703125 C 53.484375 -34.753906 53.175781 -33.039062 52.5625 -31.5625 Z M 13.5 -40.703125 L 13.5 -32.0625 L 24.640625 -32.0625 C 28.585938 -32.0625 31.796875 -32.144531 34.265625 -32.3125 C 36.742188 -32.476562 38.671875 -32.710938 40.046875 -33.015625 C 41.429688 -33.328125 42.421875 -33.671875 43.015625 -34.046875 C 43.617188 -34.429688 43.976562 -34.847656 44.09375 -35.296875 C 44.207031 -35.753906 44.265625 -36.222656 44.265625 -36.703125 C 44.265625 -37.316406 43.800781 -37.929688 42.875 -38.546875 C 41.945312 -39.171875 40.207031 -39.6875 37.65625 -40.09375 C 35.113281 -40.5 31.390625 -40.703125 26.484375 -40.703125 Z M 60.265625 -14 C 60.742188 -14.46875 61.039062 -14.894531 61.15625 -15.28125 C 61.28125 -15.664062 61.34375 -16.023438 61.34375 -16.359375 C 61.34375 -17.921875 60.519531 -19.175781 58.875 -20.125 C 57.226562 -21.082031 55.097656 -21.773438 52.484375 -22.203125 C 49.867188 -22.628906 47.128906 -22.84375 44.265625 -22.84375 L 13.5 -22.84375 L 13.5 -9.21875 L 39.5625 -9.21875 C 41.132812 -9.164062 42.914062 -9.207031 44.90625 -9.34375 C 46.90625 -9.488281 48.894531 -9.753906 50.875 -10.140625 C 52.851562 -10.523438 54.675781 -11.035156 56.34375 -11.671875 C 58.007812 -12.316406 59.316406 -13.09375 60.265625 -14 Z M 60.265625 -14 "/></g></g></g></svg>