<svg xmlns="http://www.w3.org/2000/svg" xmlns:xlink="http://www.w3.org/1999/xlink" width="500" zoomAndPan="magnify" viewBox="0 0 375 374.999991" height="500" preserveAspectRatio="xMidYMid meet" version="1.0"><defs><g/></defs><g fill="#ff914d" fill-opacity="1"><g transform="translate(0.0000045, 229.682334)"><g><path d="M 95.953125 -123.03125 C 101.109375 -123.03125 107.082031 -122.910156 113.875 -122.671875 C 120.675781 -122.441406 127.59375 -121.738281 134.625 -120.5625 C 141.65625 -119.394531 148.15625 -117.460938 154.125 -114.765625 C 160.101562 -112.066406 164.910156 -108.285156 168.546875 -103.421875 C 172.179688 -98.566406 174 -92.269531 174 -84.53125 C 174 -75.394531 172.003906 -68.039062 168.015625 -62.46875 C 164.035156 -56.90625 158.5 -52.6875 151.40625 -49.8125 C 144.320312 -46.945312 136.148438 -45.015625 126.890625 -44.015625 C 117.628906 -43.023438 107.785156 -42.472656 97.359375 -42.359375 L 33.21875 -42.359375 L 33.21875 0 L 10.546875 0 L 10.546875 -123.03125 Z M 90.328125 -65.03125 C 102.867188 -65.03125 113.035156 -65.410156 120.828125 -66.171875 C 128.617188 -66.929688 134.648438 -67.953125 138.921875 -69.234375 C 143.203125 -70.523438 146.191406 -72.019531 147.890625 -73.71875 C 149.585938 -75.425781 150.582031 -77.21875 150.875 -79.09375 C 151.175781 -80.96875 151.328125 -82.78125 151.328125 -84.53125 C 151.328125 -87.695312 149.945312 -90.273438 147.1875 -92.265625 C 144.4375 -94.253906 140.832031 -95.804688 136.375 -96.921875 C 131.925781 -98.035156 127.179688 -98.828125 122.140625 -99.296875 C 117.109375 -99.765625 112.273438 -100.054688 107.640625 -100.171875 C 103.015625 -100.296875 99.117188 -100.359375 95.953125 -100.359375 L 33.21875 -100.359375 L 33.21875 -65.03125 Z M 90.328125 -65.03125 "/></g></g></g><g fill="#1f1f1f" fill-opacity="1"><g transform="translate(177.847296, 229.682334)"><g><path d="M 129.359375 -77.6875 C 139.316406 -76.394531 147.3125 -74.3125 153.34375 -71.4375 C 159.375 -68.570312 163.972656 -65.320312 167.140625 -61.6875 C 170.304688 -58.050781 172.472656 -54.359375 173.640625 -50.609375 C 174.816406 -46.859375 175.40625 -43.40625 175.40625 -40.25 C 175.40625 -31.8125 172.238281 -24.488281 165.90625 -18.28125 C 162.394531 -14.882812 158.207031 -12.070312 153.34375 -9.84375 C 148.476562 -7.613281 143.378906 -5.820312 138.046875 -4.46875 C 132.722656 -3.125 127.507812 -2.128906 122.40625 -1.484375 C 117.3125 -0.847656 112.742188 -0.441406 108.703125 -0.265625 C 104.660156 -0.0859375 101.582031 0 99.46875 0 C 99 0 98.5625 0 98.15625 0 C 97.75 0 97.425781 0 97.1875 0 L 10.546875 0 L 10.546875 -122.84375 L 65.203125 -122.84375 C 69.535156 -122.84375 74.570312 -122.722656 80.3125 -122.484375 C 86.050781 -122.253906 91.910156 -121.671875 97.890625 -120.734375 C 103.867188 -119.796875 109.40625 -118.1875 114.5 -115.90625 C 119.59375 -113.625 123.722656 -110.398438 126.890625 -106.234375 C 130.054688 -102.078125 131.640625 -96.773438 131.640625 -90.328125 C 131.640625 -85.523438 130.878906 -81.3125 129.359375 -77.6875 Z M 33.21875 -100.171875 L 33.21875 -78.90625 L 60.640625 -78.90625 C 70.359375 -78.90625 78.265625 -79.109375 84.359375 -79.515625 C 90.453125 -79.929688 95.195312 -80.519531 98.59375 -81.28125 C 101.988281 -82.039062 104.421875 -82.890625 105.890625 -83.828125 C 107.359375 -84.765625 108.238281 -85.789062 108.53125 -86.90625 C 108.820312 -88.019531 108.96875 -89.160156 108.96875 -90.328125 C 108.96875 -91.859375 107.820312 -93.382812 105.53125 -94.90625 C 103.25 -96.425781 98.972656 -97.679688 92.703125 -98.671875 C 86.441406 -99.671875 77.273438 -100.171875 65.203125 -100.171875 Z M 148.328125 -34.453125 C 149.503906 -35.617188 150.238281 -36.671875 150.53125 -37.609375 C 150.820312 -38.546875 150.96875 -39.425781 150.96875 -40.25 C 150.96875 -44.113281 148.945312 -47.21875 144.90625 -49.5625 C 140.863281 -51.90625 135.617188 -53.601562 129.171875 -54.65625 C 122.734375 -55.707031 116 -56.234375 108.96875 -56.234375 L 33.21875 -56.234375 L 33.21875 -22.671875 L 97.359375 -22.671875 C 101.234375 -22.554688 105.628906 -22.671875 110.546875 -23.015625 C 115.460938 -23.367188 120.351562 -24.015625 125.21875 -24.953125 C 130.082031 -25.890625 134.5625 -27.148438 138.65625 -28.734375 C 142.757812 -30.316406 145.984375 -32.222656 148.328125 -34.453125 Z M 148.328125 -34.453125 "/></g></g></g></svg>