<svg xmlns="http://www.w3.org/2000/svg" xmlns:xlink="http://www.w3.org/1999/xlink" width="500" zoomAndPan="magnify" viewBox="0 0 375 374.999991" height="500" preserveAspectRatio="xMidYMid meet" version="1.0"><defs><g/></defs><g fill="#e87731" fill-opacity="1"><g transform="translate(26.499427, 248.607887)"><g><path d="M 132.921875 -170.421875 C 140.066406 -170.421875 148.34375 -170.253906 157.75 -169.921875 C 167.164062 -169.597656 176.742188 -168.625 186.484375 -167 C 196.222656 -165.382812 205.226562 -162.707031 213.5 -158.96875 C 221.78125 -155.238281 228.4375 -150.003906 233.46875 -143.265625 C 238.5 -136.535156 241.015625 -127.8125 241.015625 -117.09375 C 241.015625 -104.4375 238.253906 -94.253906 232.734375 -86.546875 C 227.222656 -78.835938 219.554688 -72.992188 209.734375 -69.015625 C 199.910156 -65.035156 188.585938 -62.359375 175.765625 -60.984375 C 162.953125 -59.609375 149.320312 -58.835938 134.875 -58.671875 L 46.015625 -58.671875 L 46.015625 0 L 14.609375 0 L 14.609375 -170.421875 Z M 125.140625 -90.078125 C 142.503906 -90.078125 156.582031 -90.601562 167.375 -91.65625 C 178.164062 -92.71875 186.519531 -94.140625 192.4375 -95.921875 C 198.363281 -97.703125 202.503906 -99.769531 204.859375 -102.125 C 207.210938 -104.476562 208.59375 -106.953125 209 -109.546875 C 209.40625 -112.148438 209.609375 -114.664062 209.609375 -117.09375 C 209.609375 -121.476562 207.703125 -125.050781 203.890625 -127.8125 C 200.078125 -130.570312 195.085938 -132.722656 188.921875 -134.265625 C 182.753906 -135.804688 176.179688 -136.898438 169.203125 -137.546875 C 162.222656 -138.203125 155.523438 -138.609375 149.109375 -138.765625 C 142.703125 -138.929688 137.304688 -139.015625 132.921875 -139.015625 L 46.015625 -139.015625 L 46.015625 -90.078125 Z M 125.140625 -90.078125 "/></g></g></g><g fill="#1f1f1f" fill-opacity="1"><g transform="translate(115.078627, 248.607887)"><g><path d="M 179.1875 -107.609375 C 192.976562 -105.816406 204.050781 -102.929688 212.40625 -98.953125 C 220.769531 -94.984375 227.140625 -90.484375 231.515625 -85.453125 C 235.898438 -80.421875 238.90625 -75.304688 240.53125 -70.109375 C 242.15625 -64.921875 242.96875 -60.132812 242.96875 -55.75 C 242.96875 -44.0625 238.582031 -33.914062 229.8125 -25.3125 C 224.945312 -20.613281 219.144531 -16.71875 212.40625 -13.625 C 205.675781 -10.539062 198.617188 -8.066406 191.234375 -6.203125 C 183.847656 -4.335938 176.625 -2.957031 169.5625 -2.0625 C 162.5 -1.175781 156.164062 -0.609375 150.5625 -0.359375 C 144.96875 -0.117188 140.710938 0 137.796875 0 C 137.148438 0 136.539062 0 135.96875 0 C 135.394531 0 134.945312 0 134.625 0 L 14.609375 0 L 14.609375 -170.171875 L 90.328125 -170.171875 C 96.328125 -170.171875 103.300781 -170.007812 111.25 -169.6875 C 119.207031 -169.363281 127.320312 -168.550781 135.59375 -167.25 C 143.875 -165.945312 151.546875 -163.710938 158.609375 -160.546875 C 165.671875 -157.390625 171.390625 -152.929688 175.765625 -147.171875 C 180.148438 -141.410156 182.34375 -134.066406 182.34375 -125.140625 C 182.34375 -118.484375 181.289062 -112.640625 179.1875 -107.609375 Z M 46.015625 -138.765625 L 46.015625 -109.3125 L 83.984375 -109.3125 C 97.460938 -109.3125 108.421875 -109.59375 116.859375 -110.15625 C 125.296875 -110.726562 131.867188 -111.539062 136.578125 -112.59375 C 141.285156 -113.644531 144.648438 -114.820312 146.671875 -116.125 C 148.703125 -117.425781 149.921875 -118.847656 150.328125 -120.390625 C 150.734375 -121.929688 150.9375 -123.515625 150.9375 -125.140625 C 150.9375 -127.242188 149.351562 -129.347656 146.1875 -131.453125 C 143.03125 -133.566406 137.109375 -135.3125 128.421875 -136.6875 C 119.734375 -138.070312 107.035156 -138.765625 90.328125 -138.765625 Z M 205.46875 -47.71875 C 207.09375 -49.34375 208.109375 -50.800781 208.515625 -52.09375 C 208.921875 -53.394531 209.125 -54.613281 209.125 -55.75 C 209.125 -61.101562 206.320312 -65.398438 200.71875 -68.640625 C 195.125 -71.890625 187.863281 -74.242188 178.9375 -75.703125 C 170.007812 -77.171875 160.675781 -77.90625 150.9375 -77.90625 L 46.015625 -77.90625 L 46.015625 -31.40625 L 134.875 -31.40625 C 140.226562 -31.238281 146.3125 -31.398438 153.125 -31.890625 C 159.945312 -32.378906 166.722656 -33.269531 173.453125 -34.5625 C 180.191406 -35.863281 186.398438 -37.609375 192.078125 -39.796875 C 197.765625 -41.992188 202.226562 -44.632812 205.46875 -47.71875 Z M 205.46875 -47.71875 "/></g></g></g></svg>